<?xml version="1.0" standalone="no"?><!DOCTYPE svg PUBLIC "-//W3C//DTD SVG 1.1//EN" "http://www.w3.org/Graphics/SVG/1.1/DTD/svg11.dtd"><svg t="1681782782601" class="icon" viewBox="0 0 1024 1024" version="1.1" xmlns="http://www.w3.org/2000/svg" p-id="2151" xmlns:xlink="http://www.w3.org/1999/xlink" width="48" height="48"><path d="M300.05592 0h423.88816c200.041092 0 300.05592 100.014829 300.05592 300.05592v423.88816c0 200.041092-100.014829 300.05592-300.05592 300.05592H300.05592C100.014829 1024 0 923.973737 0 723.94408V300.05592C0 100.014829 100.014829 0 300.05592 0z" fill="#F26666" opacity=".15" p-id="2152"></path><path d="M277.347626 388.647997m29.420162 0l68.044843 0q29.420162 0 29.420162 29.420161l0 283.91085q0 29.420162-29.420162 29.420161l-68.044843 0q-29.420162 0-29.420162-29.420161l0-283.91085q0-29.420162 29.420162-29.420161Z" fill="#F26666" p-id="2153"></path><path d="M447.797043 292.452186m33.296351 0l60.292465 0q33.296351 0 33.296351 33.296351l0 372.354281q0 33.296351-33.296351 33.296351l-60.292465 0q-33.296351 0-33.296351-33.296351l0-372.354281q0-33.296351 33.296351-33.296351Z" fill="#F26666" p-id="2154"></path><path d="M618.24646 485.99866m24.903658 0l77.077851 0q24.903658 0 24.903658 24.903658l0 195.593193q0 24.903658-24.903658 24.903658l-77.077851 0q-24.903658 0-24.903658-24.903658l0-195.593193q0-24.903658 24.903658-24.903658Z" fill="#F26666" p-id="2155"></path><path d="M560.275135 317.733173m0 20.581535l0 73.178793q0 20.581536-20.581535 20.581536l0 0q-20.581536 0-20.581536-20.581536l0-73.178793q0-20.581536 20.581536-20.581535l0 0q20.581536 0 20.581535 20.581535Z" fill="#FFFFFF" p-id="2156"></path></svg>