<?xml version="1.0" standalone="no"?><!DOCTYPE svg PUBLIC "-//W3C//DTD SVG 1.1//EN" "http://www.w3.org/Graphics/SVG/1.1/DTD/svg11.dtd"><svg t="1681782756573" class="icon" viewBox="0 0 1024 1024" version="1.1" xmlns="http://www.w3.org/2000/svg" p-id="1769" xmlns:xlink="http://www.w3.org/1999/xlink" width="16" height="16"><path d="M300.05592 0h423.88816c200.041092 0 300.05592 100.014829 300.05592 300.05592v423.88816c0 200.041092-100.014829 300.05592-300.05592 300.05592H300.05592C100.014829 1024 0 923.973737 0 723.94408V300.05592C0 100.014829 100.014829 0 300.05592 0z" fill="#F26666" opacity=".15" p-id="1770"></path><path d="M273.185582 559.108848m18.443343 0l109.76819 0q18.443343 0 18.443342 18.443343l0 115.908348q0 18.443343-18.443342 18.443342l-109.76819 0q-18.443343 0-18.443343-18.443342l0-115.908348q0-18.443343 18.443343-18.443343Z" fill="#F26666" p-id="1771"></path><path d="M447.191031 484.294966m22.513913 0l101.627049 0q22.513913 0 22.513913 22.513913l0 182.581089q0 22.513913-22.513913 22.513913l-101.627049 0q-22.513913 0-22.513913-22.513913l0-182.581089q0-22.513913 22.513913-22.513913Z" fill="#F26666" p-id="1772"></path><path d="M621.207915 385.915226m26.938943 0l92.776989 0q26.938943 0 26.938943 26.938943l0 272.110769q0 26.938943-26.938943 26.938943l-92.776989 0q-26.938943 0-26.938943-26.938943l0-272.110769q0-26.938943 26.938943-26.938943Z" fill="#F26666" p-id="1773"></path><path d="M272.156505 736.075751m20.581536 0l455.560856 0q20.581536 0 20.581535 20.581536l0 0q0 20.581536-20.581535 20.581536l-455.560856 0q-20.581536 0-20.581536-20.581536l0 0q0-20.581536 20.581536-20.581536Z" fill="#F26666" p-id="1774"></path><path d="M751.786324 410.361517m0 21.016034l0 91.347716q0 21.016035-21.016035 21.016035l-0.011434 0q-21.016035 0-21.016035-21.016035l0-91.347716q0-21.016035 21.016035-21.016034l0.011434 0q21.016035 0 21.016035 21.016034Z" fill="#FFFFFF" p-id="1775"></path><path d="M297.391755 444.927062c-7.146367 0-14.098352-3.727545-17.894502-10.382241-5.637054-9.867703-2.206798-22.445308 7.660905-28.082362l191.339676-109.265085a24.7573 24.7573 0 0 1 32.621734 7.23784l37.607039 53.214703 183.507258-122.597347c9.444638-6.311671 22.228058-3.773282 28.551163 5.682791 6.311671 9.456072 3.773282 22.228058-5.68279 28.551164L558.388494 400.711063c-11.285542 7.546563-26.264326 4.768056-34.108178-6.323105l-38.224485-54.095136-178.48765 101.924338a20.464907 20.464907 0 0 1-10.18786 2.709902z" fill="#F26666" opacity=".5" p-id="1776"></path></svg>