<?xml version="1.0" standalone="no"?><!DOCTYPE svg PUBLIC "-//W3C//DTD SVG 1.1//EN" "http://www.w3.org/Graphics/SVG/1.1/DTD/svg11.dtd"><svg t="1681782770432" class="icon" viewBox="0 0 1024 1024" version="1.1" xmlns="http://www.w3.org/2000/svg" p-id="1935" width="48" height="48" xmlns:xlink="http://www.w3.org/1999/xlink"><path d="M300.05592 0h423.88816c200.041092 0 300.05592 100.014829 300.05592 300.05592v423.88816c0 200.041092-100.014829 300.05592-300.05592 300.05592H300.05592C100.014829 1024 0 923.973737 0 723.94408V300.05592C0 100.014829 100.014829 0 300.05592 0z" fill="#FF6D00" opacity=".15" p-id="1936"></path><path d="M717.460896 445.235785H602.341507c10.702398-43.28983 14.83014-78.975926 15.859217-126.26772 1.372102-62.853723-129.812319-101.112511-131.172987 5.465541-0.960472 74.539461-42.009201 107.641431-66.61557 120.802179H290.325428c-9.844835 0-17.825897 7.981062-17.825897 17.825897v269.309393c0 9.844835 7.981062 17.825897 17.825897 17.825897h349.371566c26.412971 0 49.933092-16.693912 58.645942-41.620439l67.976239-194.495511c11.754344-33.650811-13.21792-68.833802-48.858279-68.833802z" fill="#FF6D00" p-id="1937"></path><path d="M333.706731 717.952566m0-20.581536l0-179.814015q0-20.581536 20.581536-20.581536l0 0q20.581536 0 20.581535 20.581536l0 179.814015q0 20.581536-20.581535 20.581536l0 0q-20.581536 0-20.581536-20.581536Z" fill="#FFFFFF" p-id="1938"></path></svg>